<mxfile host="app.diagrams.net" modified="2022-06-24T12:30:20.785Z" agent="5.0 (Windows NT 10.0; Win64; x64) AppleWebKit/537.36 (KHTML, like Gecko) Chrome/102.0.0.0 Safari/537.36" etag="uUYiA36rtSN2b_nAHvTv" version="20.0.2" type="github">
  <diagram id="C5RBs43oDa-KdzZeNtuy" name="Page-1">
    <mxGraphModel dx="1240" dy="677" grid="1" gridSize="10" guides="1" tooltips="1" connect="1" arrows="1" fold="1" page="1" pageScale="1" pageWidth="827" pageHeight="1169" math="0" shadow="0">
      <root>
        <mxCell id="WIyWlLk6GJQsqaUBKTNV-0" />
        <mxCell id="WIyWlLk6GJQsqaUBKTNV-1" parent="WIyWlLk6GJQsqaUBKTNV-0" />
        <mxCell id="vkk0UqImBpy2Ii6Fl9ox-43" value="" style="group" vertex="1" connectable="0" parent="WIyWlLk6GJQsqaUBKTNV-1">
          <mxGeometry width="840" height="1171" as="geometry" />
        </mxCell>
        <mxCell id="vkk0UqImBpy2Ii6Fl9ox-36" value="" style="rounded=0;whiteSpace=wrap;html=1;" vertex="1" parent="vkk0UqImBpy2Ii6Fl9ox-43">
          <mxGeometry x="560" width="280" height="1170" as="geometry" />
        </mxCell>
        <mxCell id="vkk0UqImBpy2Ii6Fl9ox-29" value="" style="rounded=0;whiteSpace=wrap;html=1;" vertex="1" parent="vkk0UqImBpy2Ii6Fl9ox-43">
          <mxGeometry y="1" width="840" height="1170" as="geometry" />
        </mxCell>
        <mxCell id="vkk0UqImBpy2Ii6Fl9ox-30" value="Operator" style="rounded=0;whiteSpace=wrap;html=1;" vertex="1" parent="vkk0UqImBpy2Ii6Fl9ox-43">
          <mxGeometry y="1" width="840" height="60" as="geometry" />
        </mxCell>
        <mxCell id="vkk0UqImBpy2Ii6Fl9ox-33" value="" style="rounded=0;whiteSpace=wrap;html=1;" vertex="1" parent="vkk0UqImBpy2Ii6Fl9ox-43">
          <mxGeometry y="1" width="280" height="1170" as="geometry" />
        </mxCell>
        <mxCell id="vkk0UqImBpy2Ii6Fl9ox-31" value="&lt;span style=&quot;font-weight: normal;&quot;&gt;Peminjam&lt;/span&gt;" style="rounded=0;whiteSpace=wrap;html=1;fontStyle=1" vertex="1" parent="vkk0UqImBpy2Ii6Fl9ox-43">
          <mxGeometry y="1" width="280" height="60" as="geometry" />
        </mxCell>
        <mxCell id="vkk0UqImBpy2Ii6Fl9ox-34" value="" style="rounded=0;whiteSpace=wrap;html=1;" vertex="1" parent="vkk0UqImBpy2Ii6Fl9ox-43">
          <mxGeometry x="280" y="1" width="280" height="1170" as="geometry" />
        </mxCell>
        <mxCell id="vkk0UqImBpy2Ii6Fl9ox-35" value="Operator" style="rounded=0;whiteSpace=wrap;html=1;" vertex="1" parent="vkk0UqImBpy2Ii6Fl9ox-43">
          <mxGeometry x="280" y="1" width="280" height="60" as="geometry" />
        </mxCell>
        <mxCell id="vkk0UqImBpy2Ii6Fl9ox-32" value="Admin" style="rounded=0;whiteSpace=wrap;html=1;" vertex="1" parent="vkk0UqImBpy2Ii6Fl9ox-43">
          <mxGeometry x="560" y="1" width="280" height="60" as="geometry" />
        </mxCell>
        <mxCell id="vkk0UqImBpy2Ii6Fl9ox-45" value="" style="strokeWidth=2;html=1;shape=mxgraph.flowchart.start_1;whiteSpace=wrap;" vertex="1" parent="vkk0UqImBpy2Ii6Fl9ox-43">
          <mxGeometry x="80" y="81" width="100" height="60" as="geometry" />
        </mxCell>
        <mxCell id="vkk0UqImBpy2Ii6Fl9ox-52" value="Pengisian Data oleh peminjam" style="shape=parallelogram;html=1;strokeWidth=2;perimeter=parallelogramPerimeter;whiteSpace=wrap;rounded=1;arcSize=12;size=0.23;" vertex="1" parent="vkk0UqImBpy2Ii6Fl9ox-43">
          <mxGeometry x="60" y="440" width="140" height="60" as="geometry" />
        </mxCell>
        <mxCell id="vkk0UqImBpy2Ii6Fl9ox-48" value="Pendaftaran" style="whiteSpace=wrap;html=1;strokeWidth=2;" vertex="1" parent="vkk0UqImBpy2Ii6Fl9ox-43">
          <mxGeometry x="70" y="330" width="120" height="60" as="geometry" />
        </mxCell>
        <mxCell id="vkk0UqImBpy2Ii6Fl9ox-53" style="edgeStyle=orthogonalEdgeStyle;rounded=0;orthogonalLoop=1;jettySize=auto;html=1;" edge="1" parent="vkk0UqImBpy2Ii6Fl9ox-43" source="vkk0UqImBpy2Ii6Fl9ox-48" target="vkk0UqImBpy2Ii6Fl9ox-52">
          <mxGeometry relative="1" as="geometry" />
        </mxCell>
        <mxCell id="vkk0UqImBpy2Ii6Fl9ox-56" style="edgeStyle=orthogonalEdgeStyle;rounded=0;orthogonalLoop=1;jettySize=auto;html=1;entryX=1;entryY=0.5;entryDx=0;entryDy=0;exitX=0.5;exitY=0;exitDx=0;exitDy=0;" edge="1" parent="vkk0UqImBpy2Ii6Fl9ox-43" source="vkk0UqImBpy2Ii6Fl9ox-54" target="vkk0UqImBpy2Ii6Fl9ox-48">
          <mxGeometry relative="1" as="geometry" />
        </mxCell>
        <mxCell id="vkk0UqImBpy2Ii6Fl9ox-54" value="Aktivasi Akun?" style="rhombus;whiteSpace=wrap;html=1;strokeWidth=2;rounded=1;arcSize=12;" vertex="1" parent="vkk0UqImBpy2Ii6Fl9ox-43">
          <mxGeometry x="660" y="430" width="80" height="80" as="geometry" />
        </mxCell>
        <mxCell id="vkk0UqImBpy2Ii6Fl9ox-55" value="" style="edgeStyle=orthogonalEdgeStyle;rounded=0;orthogonalLoop=1;jettySize=auto;html=1;" edge="1" parent="vkk0UqImBpy2Ii6Fl9ox-43" source="vkk0UqImBpy2Ii6Fl9ox-52" target="vkk0UqImBpy2Ii6Fl9ox-54">
          <mxGeometry relative="1" as="geometry" />
        </mxCell>
        <mxCell id="vkk0UqImBpy2Ii6Fl9ox-46" value="Memiliki Akun?" style="rhombus;whiteSpace=wrap;html=1;strokeWidth=2;" vertex="1" parent="vkk0UqImBpy2Ii6Fl9ox-43">
          <mxGeometry x="90" y="210" width="80" height="80" as="geometry" />
        </mxCell>
        <mxCell id="vkk0UqImBpy2Ii6Fl9ox-47" value="" style="edgeStyle=orthogonalEdgeStyle;rounded=0;orthogonalLoop=1;jettySize=auto;html=1;" edge="1" parent="vkk0UqImBpy2Ii6Fl9ox-43" source="vkk0UqImBpy2Ii6Fl9ox-45" target="vkk0UqImBpy2Ii6Fl9ox-46">
          <mxGeometry relative="1" as="geometry" />
        </mxCell>
        <mxCell id="vkk0UqImBpy2Ii6Fl9ox-49" value="" style="edgeStyle=orthogonalEdgeStyle;rounded=0;orthogonalLoop=1;jettySize=auto;html=1;" edge="1" parent="vkk0UqImBpy2Ii6Fl9ox-43" source="vkk0UqImBpy2Ii6Fl9ox-46" target="vkk0UqImBpy2Ii6Fl9ox-48">
          <mxGeometry relative="1" as="geometry" />
        </mxCell>
        <mxCell id="vkk0UqImBpy2Ii6Fl9ox-57" value="Login Akun" style="whiteSpace=wrap;html=1;strokeWidth=2;rounded=1;arcSize=12;" vertex="1" parent="WIyWlLk6GJQsqaUBKTNV-1">
          <mxGeometry x="70" y="580" width="120" height="60" as="geometry" />
        </mxCell>
        <mxCell id="vkk0UqImBpy2Ii6Fl9ox-59" style="edgeStyle=orthogonalEdgeStyle;rounded=0;orthogonalLoop=1;jettySize=auto;html=1;entryX=0;entryY=0.5;entryDx=0;entryDy=0;exitX=0;exitY=0.5;exitDx=0;exitDy=0;" edge="1" parent="WIyWlLk6GJQsqaUBKTNV-1" source="vkk0UqImBpy2Ii6Fl9ox-46" target="vkk0UqImBpy2Ii6Fl9ox-57">
          <mxGeometry relative="1" as="geometry">
            <Array as="points">
              <mxPoint x="20" y="250" />
              <mxPoint x="20" y="610" />
            </Array>
          </mxGeometry>
        </mxCell>
        <mxCell id="vkk0UqImBpy2Ii6Fl9ox-60" style="edgeStyle=orthogonalEdgeStyle;rounded=0;orthogonalLoop=1;jettySize=auto;html=1;entryX=1;entryY=0.5;entryDx=0;entryDy=0;exitX=0.5;exitY=1;exitDx=0;exitDy=0;" edge="1" parent="WIyWlLk6GJQsqaUBKTNV-1" source="vkk0UqImBpy2Ii6Fl9ox-54" target="vkk0UqImBpy2Ii6Fl9ox-57">
          <mxGeometry relative="1" as="geometry" />
        </mxCell>
      </root>
    </mxGraphModel>
  </diagram>
</mxfile>
